<?xml version="1.0" encoding="iso-8859-1"?>
<!-- Generator: Adobe Illustrator 25.4.1, SVG Export Plug-In . SVG Version: 6.00 Build 0)  -->
<svg version="1.1" id="Layer_1" xmlns="http://www.w3.org/2000/svg" xmlns:xlink="http://www.w3.org/1999/xlink" x="0px" y="0px"
	 viewBox="0 0 100 100" style="enable-background:new 0 0 100 100;" xml:space="preserve">
<g style="opacity:0.35;">
	<path d="M67.973,86.141c-2.489,0-4.778-1.229-6.124-3.289l-1.405-2.13c-2.676,0.382-5.433,0.578-8.201,0.578
		c-2.899,0-5.81-0.215-8.645-0.634l-1.46,2.212c-1.344,2.041-3.633,3.263-6.118,3.263c-0.12,0-0.241-0.003-0.362-0.009
		c-2.691-0.136-16.577-1.359-26.278-12.218c-1.323-1.486-2.005-3.47-1.874-5.449c1.545-24.264,9.593-37.95,11.19-40.447
		c0.551-0.847,1.207-1.552,1.971-2.128c0.122-0.091,11.176-8.025,20.95-8.025c1.696,0,3.889,0.629,5.76,3.2
		c2.041-0.002,9.145-0.002,9.145-0.002c1.976-2.716,4.386-3.204,5.859-3.204c9.741,0,20.825,7.93,20.933,8.01
		c0.809,0.609,1.472,1.327,1.998,2.15c1.597,2.498,9.645,16.194,11.186,40.459c0.13,1.964-0.552,3.949-1.873,5.429
		c-9.69,10.853-23.58,12.085-26.266,12.223C68.25,86.137,68.109,86.141,67.973,86.141z"/>
</g>
<g>
	<path style="fill:#F2F2F2;" d="M65.973,84.141c-2.489,0-4.778-1.229-6.124-3.289l-1.405-2.13c-2.676,0.382-5.433,0.578-8.201,0.578
		c-2.899,0-5.81-0.215-8.645-0.634l-1.46,2.212c-1.344,2.041-3.633,3.263-6.118,3.263c-0.12,0-0.241-0.003-0.362-0.009
		c-2.691-0.136-16.577-1.359-26.278-12.218c-1.323-1.486-2.005-3.47-1.874-5.449c1.545-24.264,9.593-37.95,11.19-40.447
		c0.551-0.847,1.207-1.552,1.971-2.128c0.122-0.091,11.176-8.025,20.95-8.025c1.696,0,3.889,0.629,5.76,3.2
		c2.041-0.002,9.145-0.002,9.145-0.002c1.976-2.716,4.386-3.204,5.859-3.204c9.741,0,20.825,7.93,20.933,8.01
		c0.809,0.609,1.472,1.327,1.998,2.15c1.597,2.498,9.645,16.194,11.186,40.459c0.13,1.964-0.552,3.949-1.873,5.429
		c-9.69,10.853-23.58,12.085-26.266,12.223C66.25,84.137,66.109,84.141,65.973,84.141z"/>
</g>
<g>
	<path style="fill:#9AA2E6;" d="M77.833,29.519c-0.112-0.176-0.24-0.314-0.408-0.441c-0.613-0.461-9.925-6.72-17.045-6.72
		c-0.446,0-1.425,1.671-1.755,3.203c-3.445,0.003-13.816-0.005-17.266,0.01c-0.408-1.448-1.458-3.208-1.742-3.208
		c-7.122,0-16.392,6.231-17.038,6.716c-0.168,0.126-0.294,0.264-0.408,0.441c-1.223,1.913-8.723,14.491-10.18,37.372
		c-0.016,0.249,0.069,0.504,0.236,0.69c7.936,8.883,19.32,9.934,21.749,10.056c0.289,0.014,0.579-0.102,0.738-0.344l1.899-2.877
		l-5.609-2.661v-2.78c10.935,4.867,26.532,5.363,38,0.029l0.047,2.744l-5.538,2.851l1.776,2.694
		c0.159,0.242,0.449,0.359,0.738,0.344c2.431-0.124,13.813-1.173,21.747-10.058c0.166-0.186,0.251-0.441,0.236-0.69
		C86.555,44.011,79.056,31.432,77.833,29.519z"/>
	<path style="fill:#40396E;" d="M65.973,79.141c-0.784,0-1.521-0.384-1.938-1.024l-1.773-2.689
		c-0.234-0.355-0.307-0.794-0.199-1.206c0.108-0.412,0.386-0.759,0.765-0.954l2.163-1.114c-9.084,2.842-20.131,2.86-29.531,0.056
		l1.797,0.853c0.393,0.187,0.686,0.534,0.802,0.952c0.117,0.418,0.047,0.867-0.192,1.23l-1.899,2.877
		c-0.438,0.666-1.236,1.056-2.062,1.015c-2.339-0.118-14.42-1.181-22.795-10.555c-0.433-0.486-0.656-1.138-0.613-1.789
		c1.468-23.048,8.932-35.766,10.413-38.081c0.216-0.332,0.465-0.601,0.768-0.829c0.097-0.072,9.988-7.019,17.941-7.019
		c1.313,0,2.297,1.93,2.803,3.205c2.672-0.007,7.291-0.006,11.093-0.006l4.011,0c0.474-1.299,1.414-3.203,2.857-3.203
		c7.965,0,17.853,6.95,17.946,7.02c0.311,0.234,0.562,0.506,0.771,0.832l0,0c1.481,2.317,8.946,15.045,10.409,38.085
		c0.043,0.646-0.181,1.298-0.613,1.783c-8.365,9.369-20.452,10.438-22.79,10.558C66.06,79.14,66.016,79.141,65.973,79.141z
		 M33.461,76.469c0,0.001-0.001,0.002-0.002,0.003L33.461,76.469z M66.538,76.465l0.003,0.004
		C66.54,76.468,66.539,76.467,66.538,76.465z M65.948,76.141c-0.001,0-0.002,0-0.003,0C65.946,76.141,65.947,76.141,65.948,76.141z
		 M13.503,66.759c7.213,7.928,17.41,9.168,20.188,9.361l0.718-1.086l-4.048-1.92c-0.523-0.248-0.857-0.775-0.857-1.355v-2.78
		c0-0.508,0.257-0.981,0.683-1.258c0.427-0.277,0.963-0.319,1.428-0.112c11.085,4.934,26.2,4.951,36.757,0.04
		c0.459-0.215,0.998-0.182,1.429,0.088c0.431,0.27,0.695,0.739,0.704,1.247l0.046,2.744c0.01,0.571-0.306,1.097-0.813,1.358
		l-4.052,2.086l0.626,0.949c2.791-0.195,12.985-1.444,20.187-9.362c-1.484-22.633-9.065-35.081-9.928-36.429
		c-0.001-0.001-0.001-0.001-0.001-0.002c-0.016-0.024-0.021-0.029-0.046-0.049c-1.289-0.968-9.458-6.113-15.607-6.404
		c-0.26,0.405-0.648,1.188-0.824,2.006c-0.149,0.69-0.759,1.184-1.465,1.184l-5.115,0c-4.363,0-9.824,0-12.146,0.01
		c-0.002,0-0.005,0-0.007,0c-0.672,0-1.262-0.446-1.443-1.093c-0.218-0.77-0.646-1.615-0.943-2.097
		c-6.13,0.348-14.211,5.434-15.493,6.397C22.572,31.677,14.99,44.116,13.503,66.759z M86.512,66.988c0,0.001,0,0.002,0,0.003
		C86.512,66.99,86.512,66.989,86.512,66.988z M13.488,66.985c0,0.001,0,0.001,0,0.003C13.488,66.987,13.488,66.986,13.488,66.985z"
		/>
</g>
<g>
	<ellipse style="fill:#F2F2F2;" cx="60.956" cy="53.094" rx="5.898" ry="7.011"/>
</g>
<g>
	<ellipse style="fill:#F2F2F2;" cx="39.049" cy="53.094" rx="5.898" ry="7.011"/>
</g>
</svg>